<svg xmlns="http://www.w3.org/2000/svg" viewBox="0 0 112 112" width="112" height="112">
  <!--
    cor-roxo.svg — a peça roxo do Jogo das Cores.

    TEXTURA: ondas.
       Três senoides, branco a 66%. Curva, para não ser confundida com nenhuma
       das três texturas de linha reta (amarelo, laranja, marrom).

    A textura NÃO é enfeite. Num jogo cujo conteúdo é a cor, cor sozinha exclui
    cerca de 1 em 12 meninos, e as oito cores desta paleta ficam quase todas na
    mesma luminância: esta é 124 em 0-255, e sete das oito caem numa faixa
    de 38 unidades. Vermelho, azul e roxo ficam a 5 unidades um do outro — em
    escala de cinza são o mesmo cinza. Ver REGRAS-JOGO-DAS-CORES.md, seção 3.2.

    Se esta peça for redesenhada, a textura tem de sobreviver, e o teste é uma
    captura do tabuleiro em escala de cinza: ela tem de continuar jogável.

    O que NÃO está aqui, de propósito:
      - a SOMBRA, que o canvas desenha por fora da peça (não caberia no viewBox);
      - o ARO DE SELEÇÃO do caminho, que é estado e não arte.
  -->
  <defs>
    <clipPath id="recorte">
      <rect width="112" height="112" rx="22"/>
    </clipPath>
    <linearGradient id="brilho" x1="0" y1="0" x2="0" y2="1">
      <stop offset="0" stop-color="#FFFFFF" stop-opacity="0.30"/>
      <stop offset="0.5" stop-color="#FFFFFF" stop-opacity="0"/>
    </linearGradient>
  </defs>

  <!-- corpo -->
  <rect width="112" height="112" rx="22" fill="#8B5CF6"/>

  <!-- textura, recortada no corpo -->
  <g clip-path="url(#recorte)">
    <g fill="none" stroke="#FFFFFF" stroke-opacity="0.66" stroke-width="8.4" stroke-linecap="round">
      <path d="M0 28 q 14 -12.32 28 0 q 14 12.32 28 0 q 14 -12.32 28 0 q 14 12.32 28 0"/>
      <path d="M0 56 q 14 -12.32 28 0 q 14 12.32 28 0 q 14 -12.32 28 0 q 14 12.32 28 0"/>
      <path d="M0 84 q 14 -12.32 28 0 q 14 12.32 28 0 q 14 -12.32 28 0 q 14 12.32 28 0"/>
    </g>
  </g>

  <!-- brilho de cima: dá volume sem trocar a cor -->
  <rect width="112" height="112" rx="22" fill="url(#brilho)"/>

  <!-- contorno interno, para a peça se separar da vizinha da mesma cor -->
  <rect x="1.5" y="1.5" width="109" height="109" rx="20.5"
        fill="none" stroke="#000000" stroke-opacity="0.16" stroke-width="3"/>
</svg>
